<mxfile host="app.diagrams.net" modified="2024-07-22T03:33:12.317Z" agent="Mozilla/5.0 (Windows NT 10.0; Win64; x64) AppleWebKit/537.36 (KHTML, like Gecko) Chrome/126.0.0.0 Safari/537.36" version="24.7.1" etag="oLgAOd-BW4KqhoUbOFSy" type="github">
  <diagram name="第 1 页" id="KJCZqilJLSQuh02HE2-i">
    <mxGraphModel>
      <root>
        <mxCell id="0" />
        <mxCell id="1" parent="0" />
      </root>
    </mxGraphModel>
  </diagram>
</mxfile>
